# xmcd CD database file
#
# Track frame offsets:
#	150
#	24686
#	41169
#	64667
#	85010
#	107289
#	126575
#	146020
#	167654
#	188333
#
# Disc length: 2735 seconds
#
# Revision: 0
# Processed by: cddbd v1.5.1PL0 Copyright (c) Steve Scherf et al.
# Submitted via: CDex 1.51
#
DISCID=800aad0a
DTITLE=Dave and Davis - Out for Good
DYEAR=2003
DGENRE=New Age
TTITLE0=Slapback
TTITLE1=Downtown
TTITLE2=Another Way
TTITLE3=Moving On
TTITLE4=Back 2 You
TTITLE5=Dreams
TTITLE6=First Call
TTITLE7=Motion
TTITLE8=Carpe Diem Part 1
TTITLE9=A Place Beyond Time
EXTD=YEAR: 2003
EXTT0=
EXTT1=
EXTT2=
EXTT3=
EXTT4=
EXTT5=
EXTT6=
EXTT7=
EXTT8=
EXTT9=
PLAYORDER=
